<?xml version="1.0" ?><!DOCTYPE svg  PUBLIC '-//W3C//DTD SVG 1.1//EN'  'http://www.w3.org/Graphics/SVG/1.1/DTD/svg11.dtd'><svg enable-background="new 0 0 91 91" height="91px" id="Layer_1" version="1.1" viewBox="0 0 91 91" width="91px" xml:space="preserve" xmlns="http://www.w3.org/2000/svg" xmlns:xlink="http://www.w3.org/1999/xlink" fill="#892CDC"><g><path d="M68.643,40.925H52.646l-5.529-16.83c-0.229-0.697-0.881-1.168-1.615-1.168s-1.386,0.471-1.615,1.168l-5.527,16.83H22.36   c-0.739,0-1.395,0.477-1.619,1.182s0.031,1.475,0.633,1.902l12.943,9.213l-5.213,15.869c-0.229,0.699,0.016,1.463,0.607,1.9   c0.59,0.434,1.395,0.441,1.994,0.016l13.795-9.822l13.797,9.822c0.295,0.211,0.641,0.314,0.986,0.314   c0.354,0,0.708-0.111,1.007-0.33c0.592-0.438,0.837-1.201,0.608-1.9l-5.213-15.869l12.941-9.213   c0.603-0.428,0.859-1.197,0.634-1.902C70.037,41.401,69.382,40.925,68.643,40.925z M45.501,30.073l3.565,10.852h-7.13   L45.501,30.073z M27.68,44.323h9.562l-1.813,5.518L27.68,44.323z M33.95,65.235l3.268-9.947l5.353,3.811L33.95,65.235z    M38.329,51.905l2.49-7.582h9.363l2.492,7.582l-7.174,5.105L38.329,51.905z M57.053,65.235l-8.62-6.137l5.352-3.811L57.053,65.235z    M55.574,49.841l-1.812-5.518h9.561L55.574,49.841z"/></g></svg>